# xmcd
#
# Track frame offsets:
#	150
#	19022
#	34629
#	50664
#	69215
#	88186
#	105741
#	129010
#	147907
#	165906
#	189060
#	208360
#
# Disc length: 3095 seconds
#
# Revision: 1
# Processed by: cddbd v1.5.2PL0 Copyright (c) Steve Scherf et al.
# Submitted via: audiograbber 1.82.02
#
DISCID=970c150c
DTITLE=Ainsley - Road to Infinity
DYEAR=2007
DGENRE=Country
TTITLE0=Wild With Peace
TTITLE1=Must Mean Something
TTITLE2=Catch Me
TTITLE3=Don't Make Me Cry
TTITLE4=You Say You Love Me
TTITLE5=Better Tell Mama
TTITLE6=Break Me
TTITLE7=Forget It All (Start All Over)
TTITLE8=Never Be True
TTITLE9=Take From Me
TTITLE10=We Said Goodbye
TTITLE11=Cry Out
EXTD=
EXTT0=
EXTT1=
EXTT2=
EXTT3=
EXTT4=
EXTT5=
EXTT6=
EXTT7=
EXTT8=
EXTT9=
EXTT10=
EXTT11=
PLAYORDER=
